<?xml version="1.0" encoding="UTF-8" standalone="no"?><svg xmlns="http://www.w3.org/2000/svg" xmlns:xlink="http://www.w3.org/1999/xlink" contentScriptType="application/ecmascript" contentStyleType="text/css" height="2600px" preserveAspectRatio="none" style="width:7021px;height:2600px;" version="1.1" viewBox="0 0 7021 2600" width="7021px" zoomAndPan="magnify"><defs><filter height="300%" id="fiz7lxcjjy1wb" width="300%" x="-1" y="-1"><feGaussianBlur result="blurOut" stdDeviation="2.0"/><feColorMatrix in="blurOut" result="blurOut2" type="matrix" values="0 0 0 0 0 0 0 0 0 0 0 0 0 0 0 0 0 0 .4 0"/><feOffset dx="4.0" dy="4.0" in="blurOut2" result="blurOut3"/><feBlend in="SourceGraphic" in2="blurOut3" mode="normal"/></filter></defs><g><!--MD5=[c7c92d4735b66698c85dc7a262a5b854]
class FaceRecognitionApp--><rect fill="#FEFECE" filter="url(#fiz7lxcjjy1wb)" height="608.0313" id="FaceRecognitionApp" style="stroke: #A80036; stroke-width: 1.5;" width="1654" x="3275" y="8"/><ellipse cx="3579.75" cy="71.2031" fill="#ADD1B2" rx="39" ry="39" style="stroke: #A80036; stroke-width: 1.0;"/><path d="M3612.4531,26.4063 L3613.4531,26.7969 C3614.75,25 3615.9531,24.4063 3617.6563,24.4063 C3619.4531,24.4063 3621.0469,25.2969 3621.9531,26.7969 C3622.5469,27.7031 3622.6563,28.5 3622.6563,31 L3622.6563,39.4063 C3622.6563,41.9063 3622.4531,43 3621.75,43.9063 C3620.75,45.2031 3619.25,46 3617.6563,46 C3616.3438,46 3614.9531,45.4063 3614.1563,44.6094 C3613.3438,43.7969 3613.1563,43.1094 3612.75,40.7031 C3612.25,38.2969 3611.25,37 3608.3438,35.4063 C3605.6563,33.9063 3602.0469,33 3598.6563,33 C3588.4531,33 3581.0469,40.7031 3581.0469,51.2031 L3581.0469,57.6094 C3581.0469,67.6094 3588.75,74.1094 3600.75,74.1094 C3605.25,74.1094 3609.25,73.2969 3611.75,71.7969 C3612.8438,71.2031 3612.8438,71.2031 3615.5469,68.4063 C3616.6563,67.2969 3617.8438,66.7969 3619.1563,66.7969 C3621.8438,66.7969 3624.1563,69.1094 3624.1563,71.7969 C3624.1563,74.1094 3622.25,76.7031 3618.8438,79.1094 C3614.4531,82.2969 3607.6563,84.1094 3600.4531,84.1094 C3583.4531,84.1094 3571.0469,73 3571.0469,57.7969 L3571.0469,51.2031 C3571.0469,35.2031 3582.8438,23 3598.25,23 C3603.4531,23 3606.9531,23.7969 3612.4531,26.4063 Z "/><text fill="#000000" font-family="sans-serif" font-size="100" lengthAdjust="spacingAndGlyphs" textLength="1022" x="3642.25" y="105.8223">FaceRecognitionApp</text><line style="stroke: #A80036; stroke-width: 1.5;" x1="3276" x2="4928" y1="134.4063" y2="134.4063"/><rect fill="none" height="6" style="stroke: #C82930; stroke-width: 1.0;" width="6" x="3283" y="142.4063"/><text fill="#000000" font-family="sans-serif" font-size="100" lengthAdjust="spacingAndGlyphs" textLength="1557" x="3323" y="231.2285">VideoProcessor videoProcessor</text><rect fill="none" height="6" style="stroke: #C82930; stroke-width: 1.0;" width="6" x="3283" y="258.8125"/><text fill="#000000" font-family="sans-serif" font-size="100" lengthAdjust="spacingAndGlyphs" textLength="1593" x="3323" y="347.6348">FaceRecognizer faceRecognizer</text><rect fill="none" height="6" style="stroke: #C82930; stroke-width: 1.0;" width="6" x="3283" y="375.2188"/><text fill="#000000" font-family="sans-serif" font-size="100" lengthAdjust="spacingAndGlyphs" textLength="1600" x="3323" y="464.041">ResultProcessor resultProcessor</text><line style="stroke: #A80036; stroke-width: 1.5;" x1="3276" x2="4928" y1="491.625" y2="491.625"/><ellipse cx="3286" cy="502.625" fill="#84BE84" rx="3" ry="3" style="stroke: #038048; stroke-width: 1.0;"/><text fill="#000000" font-family="sans-serif" font-size="100" lengthAdjust="spacingAndGlyphs" textLength="613" x="3323" y="588.4473">__init__(self)</text><!--MD5=[ee8cdb77c200e757d1d60e2ecdfb1064]
class VideoProcessor--><rect fill="#FEFECE" filter="url(#fiz7lxcjjy1wb)" height="608.0313" id="VideoProcessor" style="stroke: #A80036; stroke-width: 1.5;" width="1207" x="2126.5" y="792.5"/><ellipse cx="2335.25" cy="855.7031" fill="#B4A7E5" rx="39" ry="39" style="stroke: #A80036; stroke-width: 1.0;"/><path d="M2355.25,812.4063 L2355.25,850.7031 L2365.3438,850.7031 C2368.0469,850.7031 2368.8438,850.9063 2369.8438,851.6094 C2371.25,852.6094 2371.9531,854.1094 2371.9531,855.7031 C2371.9531,859 2369.75,860.7031 2365.3438,860.7031 L2335.1563,860.7031 C2332.75,860.7031 2331.5469,860.4063 2330.6563,859.7031 C2329.3438,858.7969 2328.5469,857.2031 2328.5469,855.7031 C2328.5469,854 2329.4531,852.2969 2330.9531,851.4063 C2331.8438,850.7969 2332.5469,850.7031 2335.1563,850.7031 L2345.25,850.7031 L2345.25,812.4063 L2335.1563,812.4063 C2332.6563,812.4063 2331.5469,812.2031 2330.6563,811.5 C2329.3438,810.5 2328.5469,809 2328.5469,807.4063 C2328.5469,805.7031 2329.4531,804 2330.9531,803.1094 C2331.8438,802.5 2332.5469,802.4063 2335.1563,802.4063 L2365.3438,802.4063 C2368.0469,802.4063 2368.8438,802.6094 2369.8438,803.2969 C2371.25,804.2969 2371.9531,805.7969 2371.9531,807.4063 C2371.9531,809.1094 2371.0469,810.7969 2369.5469,811.7031 C2368.75,812.2031 2367.6563,812.4063 2365.3438,812.4063 Z "/><text fill="#000000" font-family="sans-serif" font-size="100" font-style="italic" lengthAdjust="spacingAndGlyphs" textLength="767" x="2397.75" y="890.3223">VideoProcessor</text><line style="stroke: #A80036; stroke-width: 1.5;" x1="2127.5" x2="3332.5" y1="918.9063" y2="918.9063"/><line style="stroke: #A80036; stroke-width: 1.5;" x1="2127.5" x2="3332.5" y1="926.9063" y2="926.9063"/><ellipse cx="2137.5" cy="937.9063" fill="#84BE84" rx="3" ry="3" style="stroke: #038048; stroke-width: 1.0;"/><text fill="#000000" font-family="sans-serif" font-size="100" font-style="italic" lengthAdjust="spacingAndGlyphs" textLength="1153" x="2174.5" y="1023.7285">__init__(self, video_file)</text><ellipse cx="2137.5" cy="1054.3125" fill="#84BE84" rx="3" ry="3" style="stroke: #038048; stroke-width: 1.0;"/><text fill="#000000" font-family="sans-serif" font-size="100" font-style="italic" lengthAdjust="spacingAndGlyphs" textLength="1077" x="2174.5" y="1140.1348">start_processing(self)</text><ellipse cx="2137.5" cy="1170.7188" fill="#84BE84" rx="3" ry="3" style="stroke: #038048; stroke-width: 1.0;"/><text fill="#000000" font-family="sans-serif" font-size="100" font-style="italic" lengthAdjust="spacingAndGlyphs" textLength="1060" x="2174.5" y="1256.541">stop_processing(self)</text><ellipse cx="2137.5" cy="1287.125" fill="#84BE84" rx="3" ry="3" style="stroke: #038048; stroke-width: 1.0;"/><text fill="#000000" font-family="sans-serif" font-size="100" font-style="italic" lengthAdjust="spacingAndGlyphs" textLength="419" x="2174.5" y="1372.9473">get(self)</text><!--MD5=[7f7bc0e545d4311972776a49ac1be893]
class FaceDetector--><rect fill="#FEFECE" filter="url(#fiz7lxcjjy1wb)" height="375.2188" id="FaceDetector" style="stroke: #A80036; stroke-width: 1.5;" width="1734" x="6" y="1577"/><ellipse cx="525.75" cy="1640.2031" fill="#B4A7E5" rx="39" ry="39" style="stroke: #A80036; stroke-width: 1.0;"/><path d="M545.75,1596.9063 L545.75,1635.2031 L555.8438,1635.2031 C558.5469,1635.2031 559.3438,1635.4063 560.3438,1636.1094 C561.75,1637.1094 562.4531,1638.6094 562.4531,1640.2031 C562.4531,1643.5 560.25,1645.2031 555.8438,1645.2031 L525.6563,1645.2031 C523.25,1645.2031 522.0469,1644.9063 521.1563,1644.2031 C519.8438,1643.2969 519.0469,1641.7031 519.0469,1640.2031 C519.0469,1638.5 519.9531,1636.7969 521.4531,1635.9063 C522.3438,1635.2969 523.0469,1635.2031 525.6563,1635.2031 L535.75,1635.2031 L535.75,1596.9063 L525.6563,1596.9063 C523.1563,1596.9063 522.0469,1596.7031 521.1563,1596 C519.8438,1595 519.0469,1593.5 519.0469,1591.9063 C519.0469,1590.2031 519.9531,1588.5 521.4531,1587.6094 C522.3438,1587 523.0469,1586.9063 525.6563,1586.9063 L555.8438,1586.9063 C558.5469,1586.9063 559.3438,1587.1094 560.3438,1587.7969 C561.75,1588.7969 562.4531,1590.2969 562.4531,1591.9063 C562.4531,1593.6094 561.5469,1595.2969 560.0469,1596.2031 C559.25,1596.7031 558.1563,1596.9063 555.8438,1596.9063 Z "/><text fill="#000000" font-family="sans-serif" font-size="100" font-style="italic" lengthAdjust="spacingAndGlyphs" textLength="672" x="588.25" y="1674.8223">FaceDetector</text><line style="stroke: #A80036; stroke-width: 1.5;" x1="7" x2="1739" y1="1703.4063" y2="1703.4063"/><line style="stroke: #A80036; stroke-width: 1.5;" x1="7" x2="1739" y1="1711.4063" y2="1711.4063"/><ellipse cx="17" cy="1722.4063" fill="#84BE84" rx="3" ry="3" style="stroke: #038048; stroke-width: 1.0;"/><text fill="#000000" font-family="sans-serif" font-size="100" font-style="italic" lengthAdjust="spacingAndGlyphs" textLength="1680" x="54" y="1808.2285">__init__(self, face_crop_size=160)</text><ellipse cx="17" cy="1838.8125" fill="#84BE84" rx="3" ry="3" style="stroke: #038048; stroke-width: 1.0;"/><text fill="#000000" font-family="sans-serif" font-size="100" font-style="italic" lengthAdjust="spacingAndGlyphs" textLength="950" x="54" y="1924.6348">detect(self, image)</text><!--MD5=[a6c6c764ef525f81bbc9f42f79e225a1]
class Encoder--><rect fill="#FEFECE" filter="url(#fiz7lxcjjy1wb)" height="375.2188" id="Encoder" style="stroke: #A80036; stroke-width: 1.5;" width="1653" x="1775.5" y="1577"/><ellipse cx="2386.75" cy="1640.2031" fill="#B4A7E5" rx="39" ry="39" style="stroke: #A80036; stroke-width: 1.0;"/><path d="M2406.75,1596.9063 L2406.75,1635.2031 L2416.8438,1635.2031 C2419.5469,1635.2031 2420.3438,1635.4063 2421.3438,1636.1094 C2422.75,1637.1094 2423.4531,1638.6094 2423.4531,1640.2031 C2423.4531,1643.5 2421.25,1645.2031 2416.8438,1645.2031 L2386.6563,1645.2031 C2384.25,1645.2031 2383.0469,1644.9063 2382.1563,1644.2031 C2380.8438,1643.2969 2380.0469,1641.7031 2380.0469,1640.2031 C2380.0469,1638.5 2380.9531,1636.7969 2382.4531,1635.9063 C2383.3438,1635.2969 2384.0469,1635.2031 2386.6563,1635.2031 L2396.75,1635.2031 L2396.75,1596.9063 L2386.6563,1596.9063 C2384.1563,1596.9063 2383.0469,1596.7031 2382.1563,1596 C2380.8438,1595 2380.0469,1593.5 2380.0469,1591.9063 C2380.0469,1590.2031 2380.9531,1588.5 2382.4531,1587.6094 C2383.3438,1587 2384.0469,1586.9063 2386.6563,1586.9063 L2416.8438,1586.9063 C2419.5469,1586.9063 2420.3438,1587.1094 2421.3438,1587.7969 C2422.75,1588.7969 2423.4531,1590.2969 2423.4531,1591.9063 C2423.4531,1593.6094 2422.5469,1595.2969 2421.0469,1596.2031 C2420.25,1596.7031 2419.1563,1596.9063 2416.8438,1596.9063 Z "/><text fill="#000000" font-family="sans-serif" font-size="100" font-style="italic" lengthAdjust="spacingAndGlyphs" textLength="408" x="2449.25" y="1674.8223">Encoder</text><line style="stroke: #A80036; stroke-width: 1.5;" x1="1776.5" x2="3427.5" y1="1703.4063" y2="1703.4063"/><line style="stroke: #A80036; stroke-width: 1.5;" x1="1776.5" x2="3427.5" y1="1711.4063" y2="1711.4063"/><ellipse cx="1786.5" cy="1722.4063" fill="#84BE84" rx="3" ry="3" style="stroke: #038048; stroke-width: 1.0;"/><text fill="#000000" font-family="sans-serif" font-size="100" font-style="italic" lengthAdjust="spacingAndGlyphs" textLength="613" x="1823.5" y="1808.2285">__init__(self)</text><ellipse cx="1786.5" cy="1838.8125" fill="#84BE84" rx="3" ry="3" style="stroke: #038048; stroke-width: 1.0;"/><text fill="#000000" font-family="sans-serif" font-size="100" font-style="italic" lengthAdjust="spacingAndGlyphs" textLength="1599" x="1823.5" y="1924.6348">generate_embedding(self, face)</text><!--MD5=[75430099834887034d36f3efdb02bb45]
class Identifier--><rect fill="#FEFECE" filter="url(#fiz7lxcjjy1wb)" height="375.2188" id="Identifier" style="stroke: #A80036; stroke-width: 1.5;" width="1276" x="3464" y="1577"/><ellipse cx="3865.25" cy="1640.2031" fill="#B4A7E5" rx="39" ry="39" style="stroke: #A80036; stroke-width: 1.0;"/><path d="M3885.25,1596.9063 L3885.25,1635.2031 L3895.3438,1635.2031 C3898.0469,1635.2031 3898.8438,1635.4063 3899.8438,1636.1094 C3901.25,1637.1094 3901.9531,1638.6094 3901.9531,1640.2031 C3901.9531,1643.5 3899.75,1645.2031 3895.3438,1645.2031 L3865.1563,1645.2031 C3862.75,1645.2031 3861.5469,1644.9063 3860.6563,1644.2031 C3859.3438,1643.2969 3858.5469,1641.7031 3858.5469,1640.2031 C3858.5469,1638.5 3859.4531,1636.7969 3860.9531,1635.9063 C3861.8438,1635.2969 3862.5469,1635.2031 3865.1563,1635.2031 L3875.25,1635.2031 L3875.25,1596.9063 L3865.1563,1596.9063 C3862.6563,1596.9063 3861.5469,1596.7031 3860.6563,1596 C3859.3438,1595 3858.5469,1593.5 3858.5469,1591.9063 C3858.5469,1590.2031 3859.4531,1588.5 3860.9531,1587.6094 C3861.8438,1587 3862.5469,1586.9063 3865.1563,1586.9063 L3895.3438,1586.9063 C3898.0469,1586.9063 3898.8438,1587.1094 3899.8438,1587.7969 C3901.25,1588.7969 3901.9531,1590.2969 3901.9531,1591.9063 C3901.9531,1593.6094 3901.0469,1595.2969 3899.5469,1596.2031 C3898.75,1596.7031 3897.6563,1596.9063 3895.3438,1596.9063 Z "/><text fill="#000000" font-family="sans-serif" font-size="100" font-style="italic" lengthAdjust="spacingAndGlyphs" textLength="451" x="3927.75" y="1674.8223">Identifier</text><line style="stroke: #A80036; stroke-width: 1.5;" x1="3465" x2="4739" y1="1703.4063" y2="1703.4063"/><line style="stroke: #A80036; stroke-width: 1.5;" x1="3465" x2="4739" y1="1711.4063" y2="1711.4063"/><ellipse cx="3475" cy="1722.4063" fill="#84BE84" rx="3" ry="3" style="stroke: #038048; stroke-width: 1.0;"/><text fill="#000000" font-family="sans-serif" font-size="100" font-style="italic" lengthAdjust="spacingAndGlyphs" textLength="1222" x="3512" y="1808.2285">__init__(self, sample_dir)</text><ellipse cx="3475" cy="1838.8125" fill="#84BE84" rx="3" ry="3" style="stroke: #038048; stroke-width: 1.0;"/><text fill="#000000" font-family="sans-serif" font-size="100" font-style="italic" lengthAdjust="spacingAndGlyphs" textLength="909" x="3512" y="1924.6348">identify(self, face)</text><!--MD5=[921749833914c8d2b60cd6c1390695d6]
class PoseDetector--><rect fill="#FEFECE" filter="url(#fiz7lxcjjy1wb)" height="375.2188" id="PoseDetector" style="stroke: #A80036; stroke-width: 1.5;" width="1004" x="4775" y="1577"/><ellipse cx="4930.25" cy="1640.2031" fill="#B4A7E5" rx="39" ry="39" style="stroke: #A80036; stroke-width: 1.0;"/><path d="M4950.25,1596.9063 L4950.25,1635.2031 L4960.3438,1635.2031 C4963.0469,1635.2031 4963.8438,1635.4063 4964.8438,1636.1094 C4966.25,1637.1094 4966.9531,1638.6094 4966.9531,1640.2031 C4966.9531,1643.5 4964.75,1645.2031 4960.3438,1645.2031 L4930.1563,1645.2031 C4927.75,1645.2031 4926.5469,1644.9063 4925.6563,1644.2031 C4924.3438,1643.2969 4923.5469,1641.7031 4923.5469,1640.2031 C4923.5469,1638.5 4924.4531,1636.7969 4925.9531,1635.9063 C4926.8438,1635.2969 4927.5469,1635.2031 4930.1563,1635.2031 L4940.25,1635.2031 L4940.25,1596.9063 L4930.1563,1596.9063 C4927.6563,1596.9063 4926.5469,1596.7031 4925.6563,1596 C4924.3438,1595 4923.5469,1593.5 4923.5469,1591.9063 C4923.5469,1590.2031 4924.4531,1588.5 4925.9531,1587.6094 C4926.8438,1587 4927.5469,1586.9063 4930.1563,1586.9063 L4960.3438,1586.9063 C4963.0469,1586.9063 4963.8438,1587.1094 4964.8438,1587.7969 C4966.25,1588.7969 4966.9531,1590.2969 4966.9531,1591.9063 C4966.9531,1593.6094 4966.0469,1595.2969 4964.5469,1596.2031 C4963.75,1596.7031 4962.6563,1596.9063 4960.3438,1596.9063 Z "/><text fill="#000000" font-family="sans-serif" font-size="100" font-style="italic" lengthAdjust="spacingAndGlyphs" textLength="671" x="4992.75" y="1674.8223">PoseDetector</text><line style="stroke: #A80036; stroke-width: 1.5;" x1="4776" x2="5778" y1="1703.4063" y2="1703.4063"/><line style="stroke: #A80036; stroke-width: 1.5;" x1="4776" x2="5778" y1="1711.4063" y2="1711.4063"/><ellipse cx="4786" cy="1722.4063" fill="#84BE84" rx="3" ry="3" style="stroke: #038048; stroke-width: 1.0;"/><text fill="#000000" font-family="sans-serif" font-size="100" font-style="italic" lengthAdjust="spacingAndGlyphs" textLength="613" x="4823" y="1808.2285">__init__(self)</text><ellipse cx="4786" cy="1838.8125" fill="#84BE84" rx="3" ry="3" style="stroke: #038048; stroke-width: 1.0;"/><text fill="#000000" font-family="sans-serif" font-size="100" font-style="italic" lengthAdjust="spacingAndGlyphs" textLength="950" x="4823" y="1924.6348">detect(self, image)</text><!--MD5=[7f23cd0046bdc1b682243c9a483847e5]
class FaceRecognizer--><rect fill="#FEFECE" filter="url(#fiz7lxcjjy1wb)" height="840.8438" id="FaceRecognizer" style="stroke: #A80036; stroke-width: 1.5;" width="1467" x="3368.5" y="676"/><ellipse cx="3694.75" cy="739.2031" fill="#B4A7E5" rx="39" ry="39" style="stroke: #A80036; stroke-width: 1.0;"/><path d="M3714.75,695.9063 L3714.75,734.2031 L3724.8438,734.2031 C3727.5469,734.2031 3728.3438,734.4063 3729.3438,735.1094 C3730.75,736.1094 3731.4531,737.6094 3731.4531,739.2031 C3731.4531,742.5 3729.25,744.2031 3724.8438,744.2031 L3694.6563,744.2031 C3692.25,744.2031 3691.0469,743.9063 3690.1563,743.2031 C3688.8438,742.2969 3688.0469,740.7031 3688.0469,739.2031 C3688.0469,737.5 3688.9531,735.7969 3690.4531,734.9063 C3691.3438,734.2969 3692.0469,734.2031 3694.6563,734.2031 L3704.75,734.2031 L3704.75,695.9063 L3694.6563,695.9063 C3692.1563,695.9063 3691.0469,695.7031 3690.1563,695 C3688.8438,694 3688.0469,692.5 3688.0469,690.9063 C3688.0469,689.2031 3688.9531,687.5 3690.4531,686.6094 C3691.3438,686 3692.0469,685.9063 3694.6563,685.9063 L3724.8438,685.9063 C3727.5469,685.9063 3728.3438,686.1094 3729.3438,686.7969 C3730.75,687.7969 3731.4531,689.2969 3731.4531,690.9063 C3731.4531,692.6094 3730.5469,694.2969 3729.0469,695.2031 C3728.25,695.7031 3727.1563,695.9063 3724.8438,695.9063 Z "/><text fill="#000000" font-family="sans-serif" font-size="100" font-style="italic" lengthAdjust="spacingAndGlyphs" textLength="792" x="3757.25" y="773.8223">FaceRecognizer</text><line style="stroke: #A80036; stroke-width: 1.5;" x1="3369.5" x2="4834.5" y1="802.4063" y2="802.4063"/><rect fill="none" height="6" style="stroke: #C82930; stroke-width: 1.0;" width="6" x="3376.5" y="810.4063"/><text fill="#000000" font-family="sans-serif" font-size="100" lengthAdjust="spacingAndGlyphs" textLength="932" x="3416.5" y="899.2285">Identifier identifier</text><rect fill="none" height="6" style="stroke: #C82930; stroke-width: 1.0;" width="6" x="3376.5" y="926.8125"/><text fill="#000000" font-family="sans-serif" font-size="100" lengthAdjust="spacingAndGlyphs" textLength="1389" x="3416.5" y="1015.6348">FaceDetector face_detector</text><rect fill="none" height="6" style="stroke: #C82930; stroke-width: 1.0;" width="6" x="3376.5" y="1043.2188"/><text fill="#000000" font-family="sans-serif" font-size="100" lengthAdjust="spacingAndGlyphs" textLength="1413" x="3416.5" y="1132.041">PoseDetector pose_detector</text><rect fill="none" height="6" style="stroke: #C82930; stroke-width: 1.0;" width="6" x="3376.5" y="1159.625"/><text fill="#000000" font-family="sans-serif" font-size="100" lengthAdjust="spacingAndGlyphs" textLength="847" x="3416.5" y="1248.4473">Encoder encoder</text><line style="stroke: #A80036; stroke-width: 1.5;" x1="3369.5" x2="4834.5" y1="1276.0313" y2="1276.0313"/><ellipse cx="3379.5" cy="1287.0313" fill="#84BE84" rx="3" ry="3" style="stroke: #038048; stroke-width: 1.0;"/><text fill="#000000" font-family="sans-serif" font-size="100" font-style="italic" lengthAdjust="spacingAndGlyphs" textLength="613" x="3416.5" y="1372.8535">__init__(self)</text><ellipse cx="3379.5" cy="1403.4375" fill="#84BE84" rx="3" ry="3" style="stroke: #038048; stroke-width: 1.0;"/><text fill="#000000" font-family="sans-serif" font-size="100" font-style="italic" lengthAdjust="spacingAndGlyphs" textLength="632" x="3416.5" y="1489.2598">identify(self)</text><!--MD5=[2741598bdf59a7d7e0d5c97658fd3022]
class Result--><rect fill="#FEFECE" filter="url(#fiz7lxcjjy1wb)" height="258.8125" id="Result" style="stroke: #A80036; stroke-width: 1.5;" width="667" x="5887.5" y="2331"/><ellipse cx="6053.25" cy="2394.2031" fill="#B4A7E5" rx="39" ry="39" style="stroke: #A80036; stroke-width: 1.0;"/><path d="M6073.25,2350.9063 L6073.25,2389.2031 L6083.3438,2389.2031 C6086.0469,2389.2031 6086.8438,2389.4063 6087.8438,2390.1094 C6089.25,2391.1094 6089.9531,2392.6094 6089.9531,2394.2031 C6089.9531,2397.5 6087.75,2399.2031 6083.3438,2399.2031 L6053.1563,2399.2031 C6050.75,2399.2031 6049.5469,2398.9063 6048.6563,2398.2031 C6047.3438,2397.2969 6046.5469,2395.7031 6046.5469,2394.2031 C6046.5469,2392.5 6047.4531,2390.7969 6048.9531,2389.9063 C6049.8438,2389.2969 6050.5469,2389.2031 6053.1563,2389.2031 L6063.25,2389.2031 L6063.25,2350.9063 L6053.1563,2350.9063 C6050.6563,2350.9063 6049.5469,2350.7031 6048.6563,2350 C6047.3438,2349 6046.5469,2347.5 6046.5469,2345.9063 C6046.5469,2344.2031 6047.4531,2342.5 6048.9531,2341.6094 C6049.8438,2341 6050.5469,2340.9063 6053.1563,2340.9063 L6083.3438,2340.9063 C6086.0469,2340.9063 6086.8438,2341.1094 6087.8438,2341.7969 C6089.25,2342.7969 6089.9531,2344.2969 6089.9531,2345.9063 C6089.9531,2347.6094 6089.0469,2349.2969 6087.5469,2350.2031 C6086.75,2350.7031 6085.6563,2350.9063 6083.3438,2350.9063 Z "/><text fill="#000000" font-family="sans-serif" font-size="100" font-style="italic" lengthAdjust="spacingAndGlyphs" textLength="313" x="6115.75" y="2428.8223">Result</text><line style="stroke: #A80036; stroke-width: 1.5;" x1="5888.5" x2="6553.5" y1="2457.4063" y2="2457.4063"/><line style="stroke: #A80036; stroke-width: 1.5;" x1="5888.5" x2="6553.5" y1="2465.4063" y2="2465.4063"/><ellipse cx="5898.5" cy="2476.4063" fill="#84BE84" rx="3" ry="3" style="stroke: #038048; stroke-width: 1.0;"/><text fill="#000000" font-family="sans-serif" font-size="100" font-style="italic" lengthAdjust="spacingAndGlyphs" textLength="613" x="5935.5" y="2562.2285">__init__(self)</text><!--MD5=[3e6550892f06fa3416a94d775f4d1785]
class ResultFilter--><rect fill="#FEFECE" filter="url(#fiz7lxcjjy1wb)" height="258.8125" id="ResultFilter" style="stroke: #A80036; stroke-width: 1.5;" width="657" x="6274.5" y="2012"/><ellipse cx="6317.5" cy="2075.2031" fill="#B4A7E5" rx="39" ry="39" style="stroke: #A80036; stroke-width: 1.0;"/><path d="M6337.5,2031.9063 L6337.5,2070.2031 L6347.5938,2070.2031 C6350.2969,2070.2031 6351.0938,2070.4063 6352.0938,2071.1094 C6353.5,2072.1094 6354.2031,2073.6094 6354.2031,2075.2031 C6354.2031,2078.5 6352,2080.2031 6347.5938,2080.2031 L6317.4063,2080.2031 C6315,2080.2031 6313.7969,2079.9063 6312.9063,2079.2031 C6311.5938,2078.2969 6310.7969,2076.7031 6310.7969,2075.2031 C6310.7969,2073.5 6311.7031,2071.7969 6313.2031,2070.9063 C6314.0938,2070.2969 6314.7969,2070.2031 6317.4063,2070.2031 L6327.5,2070.2031 L6327.5,2031.9063 L6317.4063,2031.9063 C6314.9063,2031.9063 6313.7969,2031.7031 6312.9063,2031 C6311.5938,2030 6310.7969,2028.5 6310.7969,2026.9063 C6310.7969,2025.2031 6311.7031,2023.5 6313.2031,2022.6094 C6314.0938,2022 6314.7969,2021.9063 6317.4063,2021.9063 L6347.5938,2021.9063 C6350.2969,2021.9063 6351.0938,2022.1094 6352.0938,2022.7969 C6353.5,2023.7969 6354.2031,2025.2969 6354.2031,2026.9063 C6354.2031,2028.6094 6353.2969,2030.2969 6351.7969,2031.2031 C6351,2031.7031 6349.9063,2031.9063 6347.5938,2031.9063 Z "/><text fill="#000000" font-family="sans-serif" font-size="100" font-style="italic" lengthAdjust="spacingAndGlyphs" textLength="569" x="6359.5" y="2109.8223">ResultFilter</text><line style="stroke: #A80036; stroke-width: 1.5;" x1="6275.5" x2="6930.5" y1="2138.4063" y2="2138.4063"/><line style="stroke: #A80036; stroke-width: 1.5;" x1="6275.5" x2="6930.5" y1="2146.4063" y2="2146.4063"/><ellipse cx="6285.5" cy="2157.4063" fill="#84BE84" rx="3" ry="3" style="stroke: #038048; stroke-width: 1.0;"/><text fill="#000000" font-family="sans-serif" font-size="100" font-style="italic" lengthAdjust="spacingAndGlyphs" textLength="596" x="6322.5" y="2243.2285">filter(result)</text><!--MD5=[d5a1256cff88334f5d8190fda42c6b90]
class ResultHandle--><rect fill="#FEFECE" filter="url(#fiz7lxcjjy1wb)" height="375.2188" id="ResultHandle" style="stroke: #A80036; stroke-width: 1.5;" width="1196" x="5814" y="1577"/><ellipse cx="6068.25" cy="1640.2031" fill="#B4A7E5" rx="39" ry="39" style="stroke: #A80036; stroke-width: 1.0;"/><path d="M6088.25,1596.9063 L6088.25,1635.2031 L6098.3438,1635.2031 C6101.0469,1635.2031 6101.8438,1635.4063 6102.8438,1636.1094 C6104.25,1637.1094 6104.9531,1638.6094 6104.9531,1640.2031 C6104.9531,1643.5 6102.75,1645.2031 6098.3438,1645.2031 L6068.1563,1645.2031 C6065.75,1645.2031 6064.5469,1644.9063 6063.6563,1644.2031 C6062.3438,1643.2969 6061.5469,1641.7031 6061.5469,1640.2031 C6061.5469,1638.5 6062.4531,1636.7969 6063.9531,1635.9063 C6064.8438,1635.2969 6065.5469,1635.2031 6068.1563,1635.2031 L6078.25,1635.2031 L6078.25,1596.9063 L6068.1563,1596.9063 C6065.6563,1596.9063 6064.5469,1596.7031 6063.6563,1596 C6062.3438,1595 6061.5469,1593.5 6061.5469,1591.9063 C6061.5469,1590.2031 6062.4531,1588.5 6063.9531,1587.6094 C6064.8438,1587 6065.5469,1586.9063 6068.1563,1586.9063 L6098.3438,1586.9063 C6101.0469,1586.9063 6101.8438,1587.1094 6102.8438,1587.7969 C6104.25,1588.7969 6104.9531,1590.2969 6104.9531,1591.9063 C6104.9531,1593.6094 6104.0469,1595.2969 6102.5469,1596.2031 C6101.75,1596.7031 6100.6563,1596.9063 6098.3438,1596.9063 Z "/><text fill="#000000" font-family="sans-serif" font-size="100" font-style="italic" lengthAdjust="spacingAndGlyphs" textLength="665" x="6130.75" y="1674.8223">ResultHandle</text><line style="stroke: #A80036; stroke-width: 1.5;" x1="5815" x2="7009" y1="1703.4063" y2="1703.4063"/><rect fill="none" height="6" style="stroke: #C82930; stroke-width: 1.0;" width="6" x="5822" y="1711.4063"/><text fill="#000000" font-family="sans-serif" font-size="100" lengthAdjust="spacingAndGlyphs" textLength="1142" x="5862" y="1800.2285">ResultFilter resultFilter</text><line style="stroke: #A80036; stroke-width: 1.5;" x1="5815" x2="7009" y1="1827.8125" y2="1827.8125"/><ellipse cx="5825" cy="1838.8125" fill="#84BE84" rx="3" ry="3" style="stroke: #038048; stroke-width: 1.0;"/><text fill="#000000" font-family="sans-serif" font-size="100" font-style="italic" lengthAdjust="spacingAndGlyphs" textLength="703" x="5862" y="1924.6348">handle(result)</text><!--MD5=[418099dc23d704b717b5f2d7d5a23b77]
class ResultProcessor--><rect fill="#FEFECE" filter="url(#fiz7lxcjjy1wb)" height="608.0313" id="ResultProcessor" style="stroke: #A80036; stroke-width: 1.5;" width="1600" x="5241" y="792.5"/><ellipse cx="5630.75" cy="855.7031" fill="#B4A7E5" rx="39" ry="39" style="stroke: #A80036; stroke-width: 1.0;"/><path d="M5650.75,812.4063 L5650.75,850.7031 L5660.8438,850.7031 C5663.5469,850.7031 5664.3438,850.9063 5665.3438,851.6094 C5666.75,852.6094 5667.4531,854.1094 5667.4531,855.7031 C5667.4531,859 5665.25,860.7031 5660.8438,860.7031 L5630.6563,860.7031 C5628.25,860.7031 5627.0469,860.4063 5626.1563,859.7031 C5624.8438,858.7969 5624.0469,857.2031 5624.0469,855.7031 C5624.0469,854 5624.9531,852.2969 5626.4531,851.4063 C5627.3438,850.7969 5628.0469,850.7031 5630.6563,850.7031 L5640.75,850.7031 L5640.75,812.4063 L5630.6563,812.4063 C5628.1563,812.4063 5627.0469,812.2031 5626.1563,811.5 C5624.8438,810.5 5624.0469,809 5624.0469,807.4063 C5624.0469,805.7031 5624.9531,804 5626.4531,803.1094 C5627.3438,802.5 5628.0469,802.4063 5630.6563,802.4063 L5660.8438,802.4063 C5663.5469,802.4063 5664.3438,802.6094 5665.3438,803.2969 C5666.75,804.2969 5667.4531,805.7969 5667.4531,807.4063 C5667.4531,809.1094 5666.5469,810.7969 5665.0469,811.7031 C5664.25,812.2031 5663.1563,812.4063 5660.8438,812.4063 Z "/><text fill="#000000" font-family="sans-serif" font-size="100" font-style="italic" lengthAdjust="spacingAndGlyphs" textLength="798" x="5693.25" y="890.3223">ResultProcessor</text><line style="stroke: #A80036; stroke-width: 1.5;" x1="5242" x2="6840" y1="918.9063" y2="918.9063"/><rect fill="none" height="6" style="stroke: #C82930; stroke-width: 1.0;" width="6" x="5249" y="926.9063"/><text fill="#000000" font-family="sans-serif" font-size="100" lengthAdjust="spacingAndGlyphs" textLength="1546" x="5289" y="1015.7285">ResultHandler[] resultHanlders</text><line style="stroke: #A80036; stroke-width: 1.5;" x1="5242" x2="6840" y1="1043.3125" y2="1043.3125"/><ellipse cx="5252" cy="1054.3125" fill="#84BE84" rx="3" ry="3" style="stroke: #038048; stroke-width: 1.0;"/><text fill="#000000" font-family="sans-serif" font-size="100" font-style="italic" lengthAdjust="spacingAndGlyphs" textLength="1455" x="5289" y="1140.1348">__init__(self, handlers=None)</text><ellipse cx="5252" cy="1170.7188" fill="#84BE84" rx="3" ry="3" style="stroke: #038048; stroke-width: 1.0;"/><text fill="#000000" font-family="sans-serif" font-size="100" font-style="italic" lengthAdjust="spacingAndGlyphs" textLength="1198" x="5289" y="1256.541">addHandle(self, handle)</text><ellipse cx="5252" cy="1287.125" fill="#84BE84" rx="3" ry="3" style="stroke: #038048; stroke-width: 1.0;"/><text fill="#000000" font-family="sans-serif" font-size="100" font-style="italic" lengthAdjust="spacingAndGlyphs" textLength="641" x="5289" y="1372.9473">process(self)</text><!--MD5=[fe241de7db275fad9b9dbb58282fdef7]
reverse link ResultProcessor to ResultHandle--><path d="M6216.41,1412.38 C6247.7,1468.56 6279.38,1525.42 6307.86,1576.56 " fill="none" id="ResultProcessor&lt;-ResultHandle" style="stroke: #A80036; stroke-width: 1.0;"/><polygon fill="#FFFFFF" points="6209.94,1400.78,6209.3664,1407.9683,6215.7811,1411.2624,6216.3547,1404.0742,6209.94,1400.78" style="stroke: #A80036; stroke-width: 1.0;"/><!--MD5=[9b8d6942483eea5691e3227328faf72c]
reverse link FaceRecognizer to FaceDetector--><path d="M3363.41,1513.44 C3359.27,1514.65 3355.13,1515.84 3351,1517 C3009.92,1612.695 2109.59,1533.65 1758,1577 C1752.06,1577.73 1746.1,1578.48 1740.12,1579.26 " fill="none" id="FaceRecognizer&lt;-FaceDetector" style="stroke: #A80036; stroke-width: 1.0;"/><polygon fill="#A80036" points="3368.26,1512,3358.4929,1510.7335,3363.4677,1513.4263,3360.7749,1518.4011,3368.26,1512" style="stroke: #A80036; stroke-width: 1.0;"/><!--MD5=[34dd653b55ec051d08198c9adc90dca4]
reverse link FaceRecognizer to PoseDetector--><path d="M4840.22,1515.93 C4877.18,1536.88 4913.29,1557.34 4947.9,1576.96 " fill="none" id="FaceRecognizer&lt;-PoseDetector" style="stroke: #A80036; stroke-width: 1.0;"/><polygon fill="#A80036" points="4835.71,1513.37,4841.5537,1521.2979,4840.0556,1515.843,4845.5105,1514.3449,4835.71,1513.37" style="stroke: #A80036; stroke-width: 1.0;"/><!--MD5=[d06230afaf11aa3a59a51eca2bf2e726]
reverse link FaceRecognizer to Identifier--><path d="M4102,1522.64 C4102,1541.21 4102,1559.35 4102,1576.83 " fill="none" id="FaceRecognizer&lt;-Identifier" style="stroke: #A80036; stroke-width: 1.0;"/><polygon fill="#A80036" points="4102,1517.4,4098,1526.4,4102,1522.4,4106,1526.4,4102,1517.4" style="stroke: #A80036; stroke-width: 1.0;"/><!--MD5=[9a55ae593311f180902b91de5b1b67c8]
reverse link FaceRecognizer to Encoder--><path d="M3363.83,1511.33 C3359.54,1513.24 3355.27,1515.13 3351,1517 C3303.52,1537.84 3253.7,1557.91 3203.27,1576.98 " fill="none" id="FaceRecognizer&lt;-Encoder" style="stroke: #A80036; stroke-width: 1.0;"/><polygon fill="#A80036" points="3368.48,1509.25,3358.6311,1509.2443,3363.9098,1511.278,3361.876,1516.5567,3368.48,1509.25" style="stroke: #A80036; stroke-width: 1.0;"/><!--MD5=[23b136409ed92fe9f32726971fd8b6c0]
reverse link ResultHandle to Result--><path d="M6279.9,1956.647 C6271.02,1974.831 6263.17,1993.425 6257,2012 C6222.59,2115.552 6215.05,2239.679 6215.28,2330.907 " fill="none" id="ResultHandle&lt;-Result" style="stroke: #A80036; stroke-width: 1.0; stroke-dasharray: 7.0,7.0;"/><polygon fill="#A80036" points="6282.18,1952.033,6274.6078,1958.3308,6279.9657,1956.5159,6281.7805,1961.8738,6282.18,1952.033" style="stroke: #A80036; stroke-width: 1.0;"/><!--MD5=[d67df42d196ed0a54f3bbe69fccc3477]
reverse link ResultHandle to ResultFilter--><path d="M6509.49,1956.91 C6518.97,1975.529 6528.43,1994.097 6537.49,2011.878 " fill="none" id="ResultHandle&lt;-ResultFilter" style="stroke: #A80036; stroke-width: 1.0;"/><polygon fill="#A80036" points="6507.08,1952.176,6507.6001,1962.0111,6509.3491,1956.6314,6514.7288,1958.3805,6507.08,1952.176" style="stroke: #A80036; stroke-width: 1.0;"/><!--MD5=[67881bdfc32539f26b5664042592539a]
reverse link FaceRecognitionApp to VideoProcessor--><path d="M3454.37,618.61 C3419.14,637.54 3384.48,656.73 3351,676 C3288.7,711.85 3224.36,751.77 3161.77,792.33 " fill="none" id="FaceRecognitionApp&lt;-VideoProcessor" style="stroke: #A80036; stroke-width: 1.0;"/><polygon fill="#A80036" points="3459.12,616.06,3449.2968,616.7708,3454.7094,618.4152,3453.0651,623.8278,3459.12,616.06" style="stroke: #A80036; stroke-width: 1.0;"/><!--MD5=[73fe54eb1ba17bfa3e518de56c028bae]
reverse link FaceRecognitionApp to FaceRecognizer--><path d="M4102,621.17 C4102,639.19 4102,657.46 4102,675.82 " fill="none" id="FaceRecognitionApp&lt;-FaceRecognizer" style="stroke: #A80036; stroke-width: 1.0;"/><polygon fill="#A80036" points="4102,616.09,4098,625.09,4102,621.09,4106,625.09,4102,616.09" style="stroke: #A80036; stroke-width: 1.0;"/><!--MD5=[f44c3d3f3e848772e88782e85f39f5e1]
reverse link FaceRecognitionApp to ResultProcessor--><path d="M4858.1,618.13 C4999.96,675.38 5148.24,735.22 5289.95,792.41 " fill="none" id="FaceRecognitionApp&lt;-ResultProcessor" style="stroke: #A80036; stroke-width: 1.0;"/><polygon fill="#A80036" points="4853.06,616.09,4859.912,623.1646,4857.6974,617.9592,4862.9028,615.7447,4853.06,616.09" style="stroke: #A80036; stroke-width: 1.0;"/><!--MD5=[5e1fb4549d3400e6f87267a86719bd1c]
@startuml
skinparam defaultFontSize 100
class FaceRecognitionApp{
    - VideoProcessor videoProcessor
    - FaceRecognizer faceRecognizer
    - ResultProcessor resultProcessor
    + __init__(self)
}
interface VideoProcessor{
    +{abstract} __init__(self, video_file)
    + {abstract}  start_processing(self)
    + {abstract}  stop_processing(self)
    + {abstract}  get(self)
}

interface FaceDetector{
    + {abstract}__init__(self, face_crop_size=160)
    + {abstract}detect(self, image)
}

interface Encoder{
    + {abstract}__init__(self)
    + {abstract}generate_embedding(self, face)
}

interface Identifier{
    + {abstract}__init__(self, sample_dir)
    + {abstract}identify(self, face)
}

interface PoseDetector{
    + {abstract}__init__(self)
    + {abstract}detect(self, image)
}

interface FaceRecognizer{
    - Identifier identifier
    - FaceDetector face_detector
    - PoseDetector pose_detector
    - Encoder encoder
    + {abstract}  __init__(self)
    + {abstract}  identify(self)
}

interface Result{
    + {abstract}__init__(self)
}

interface ResultFilter{
    + {abstract} filter(result)
}

interface ResultHandle{
    - ResultFilter resultFilter
    + {abstract}handle(result)
}

interface ResultProcessor{
    - ResultHandler[] resultHanlders
    + {abstract}__init__(self, handlers=None)
    + {abstract}addHandle(self, handle)
    + {abstract}process(self)
}

ResultProcessor o- - ResultHandle
FaceRecognizer <- - FaceDetector
FaceRecognizer <- - PoseDetector
FaceRecognizer <- - Identifier
FaceRecognizer <- - Encoder
ResultHandle <... Result
ResultHandle <- - ResultFilter

FaceRecognitionApp <- - VideoProcessor
FaceRecognitionApp <- - FaceRecognizer
FaceRecognitionApp <- - ResultProcessor
@enduml

PlantUML version 1.2020.02(Sun Mar 01 10:22:07 UTC 2020)
(GPL source distribution)
Java Runtime: Java(TM) SE Runtime Environment
JVM: Java HotSpot(TM) 64-Bit Server VM
Java Version: 1.7.0_25-b15
Operating System: Linux
Default Encoding: UTF-8
Language: en
Country: US
--></g></svg>